#tb 0: 1/25
#media_type 0: video
#codec_id 0: rawvideo
#dimensions 0: 3840x2160
#sar 0: 0/1
0,          0,          0,        1, 16588800, 0x67ebfdb1
0,          1,          1,        1, 16588800, 0x7fa687e6
0,          2,          2,        1, 16588800, 0x4e13f5eb
0,          3,          3,        1, 16588800, 0x054a642d
